<?xml version="1.0" encoding="iso-8859-1"?>
<!-- Uploaded to: SVG Repo, www.svgrepo.com, Generator: SVG Repo Mixer Tools -->
<svg fill="#000000" height="800px" width="800px" version="1.1" id="Layer_1" xmlns="http://www.w3.org/2000/svg" xmlns:xlink="http://www.w3.org/1999/xlink" 
	 viewBox="0 0 512 512" xml:space="preserve">
<g>
	<g>
		<g>
			<path d="M490.667,0H21.333C9.551,0,0,9.551,0,21.333v469.333C0,502.449,9.551,512,21.333,512h469.333
				c11.782,0,21.333-9.551,21.333-21.333V21.333C512,9.551,502.449,0,490.667,0z M469.333,469.333H42.667V42.667h426.667V469.333z"
				/>
			<path d="M85.333,448h341.333c11.782,0,21.333-9.551,21.333-21.333V85.333C448,73.551,438.449,64,426.667,64h-85.291
				c-0.014,0-0.028-0.002-0.042-0.002S341.305,64,341.291,64h-85.249c-0.014,0-0.028-0.002-0.042-0.002S255.972,64,255.958,64
				h-85.249c-0.014,0-0.028-0.002-0.042-0.002S170.639,64,170.624,64H85.333C73.551,64,64,73.551,64,85.333v341.333
				C64,438.449,73.551,448,85.333,448z M234.667,405.333H192V106.667h42.667V405.333z M277.333,106.667H320v298.667h-42.667V106.667
				z M405.333,405.333h-42.667V106.667h42.667V405.333z M106.667,106.667h42.667v298.667h-42.667V106.667z"/>
		</g>
	</g>
</g>
</svg>